<mxfile host="Electron" modified="2024-12-20T06:02:29.918Z" agent="Mozilla/5.0 (Windows NT 10.0; Win64; x64) AppleWebKit/537.36 (KHTML, like Gecko) draw.io/22.1.21 Chrome/120.0.6099.109 Electron/28.1.0 Safari/537.36" etag="Y65gMf5ojMiCzscvVTtq" version="22.1.21" type="device">
  <diagram name="Page-1" id="8pDkzV0ZoUaFPcUGztcz">
    <mxGraphModel dx="1592" dy="1706" grid="1" gridSize="10" guides="1" tooltips="1" connect="1" arrows="1" fold="1" page="1" pageScale="1" pageWidth="850" pageHeight="1100" math="0" shadow="0">
      <root>
        <mxCell id="0" />
        <mxCell id="1" parent="0" />
        <mxCell id="jbGdhoGfE8PB2Ea7ptJv-1" value="" style="edgeStyle=orthogonalEdgeStyle;rounded=0;orthogonalLoop=1;jettySize=auto;html=1;" edge="1" parent="1" source="jbGdhoGfE8PB2Ea7ptJv-2" target="jbGdhoGfE8PB2Ea7ptJv-7">
          <mxGeometry relative="1" as="geometry" />
        </mxCell>
        <mxCell id="jbGdhoGfE8PB2Ea7ptJv-2" value="Hiển thị&amp;nbsp; danh sách MenuFooter" style="rounded=1;whiteSpace=wrap;html=1;fontSize=12;glass=0;strokeWidth=1;shadow=0;" vertex="1" parent="1">
          <mxGeometry x="160" y="80" width="120" height="40" as="geometry" />
        </mxCell>
        <mxCell id="jbGdhoGfE8PB2Ea7ptJv-3" value="" style="edgeStyle=orthogonalEdgeStyle;rounded=0;orthogonalLoop=1;jettySize=auto;html=1;" edge="1" parent="1" source="jbGdhoGfE8PB2Ea7ptJv-4" target="jbGdhoGfE8PB2Ea7ptJv-2">
          <mxGeometry relative="1" as="geometry" />
        </mxCell>
        <mxCell id="jbGdhoGfE8PB2Ea7ptJv-4" value="" style="strokeWidth=2;html=1;shape=mxgraph.flowchart.start_2;whiteSpace=wrap;" vertex="1" parent="1">
          <mxGeometry x="204" y="-10" width="66" height="60" as="geometry" />
        </mxCell>
        <mxCell id="jbGdhoGfE8PB2Ea7ptJv-5" value="" style="strokeWidth=2;html=1;shape=mxgraph.flowchart.start_2;whiteSpace=wrap;" vertex="1" parent="1">
          <mxGeometry x="340" y="610" width="66" height="60" as="geometry" />
        </mxCell>
        <mxCell id="jbGdhoGfE8PB2Ea7ptJv-6" value="" style="edgeStyle=orthogonalEdgeStyle;rounded=0;orthogonalLoop=1;jettySize=auto;html=1;" edge="1" parent="1" source="jbGdhoGfE8PB2Ea7ptJv-7" target="jbGdhoGfE8PB2Ea7ptJv-12">
          <mxGeometry relative="1" as="geometry" />
        </mxCell>
        <mxCell id="jbGdhoGfE8PB2Ea7ptJv-7" value="Xóa" style="rounded=1;whiteSpace=wrap;html=1;fontSize=12;glass=0;strokeWidth=1;shadow=0;" vertex="1" parent="1">
          <mxGeometry x="160" y="180" width="120" height="40" as="geometry" />
        </mxCell>
        <mxCell id="jbGdhoGfE8PB2Ea7ptJv-8" style="edgeStyle=orthogonalEdgeStyle;rounded=0;orthogonalLoop=1;jettySize=auto;html=1;entryX=0.25;entryY=0;entryDx=0;entryDy=0;" edge="1" parent="1" source="jbGdhoGfE8PB2Ea7ptJv-12" target="jbGdhoGfE8PB2Ea7ptJv-14">
          <mxGeometry relative="1" as="geometry" />
        </mxCell>
        <mxCell id="jbGdhoGfE8PB2Ea7ptJv-9" value="xóa" style="edgeLabel;html=1;align=center;verticalAlign=middle;resizable=0;points=[];" vertex="1" connectable="0" parent="jbGdhoGfE8PB2Ea7ptJv-8">
          <mxGeometry x="-0.2511" y="5" relative="1" as="geometry">
            <mxPoint as="offset" />
          </mxGeometry>
        </mxCell>
        <mxCell id="jbGdhoGfE8PB2Ea7ptJv-10" style="edgeStyle=orthogonalEdgeStyle;rounded=0;orthogonalLoop=1;jettySize=auto;html=1;entryX=1;entryY=0;entryDx=0;entryDy=0;" edge="1" parent="1" source="jbGdhoGfE8PB2Ea7ptJv-12" target="jbGdhoGfE8PB2Ea7ptJv-15">
          <mxGeometry relative="1" as="geometry" />
        </mxCell>
        <mxCell id="jbGdhoGfE8PB2Ea7ptJv-11" value="không" style="edgeLabel;html=1;align=center;verticalAlign=middle;resizable=0;points=[];" vertex="1" connectable="0" parent="jbGdhoGfE8PB2Ea7ptJv-10">
          <mxGeometry x="-0.4261" y="-5" relative="1" as="geometry">
            <mxPoint as="offset" />
          </mxGeometry>
        </mxCell>
        <mxCell id="jbGdhoGfE8PB2Ea7ptJv-12" value="Xác nhận" style="strokeWidth=2;html=1;shape=mxgraph.flowchart.decision;whiteSpace=wrap;" vertex="1" parent="1">
          <mxGeometry x="170" y="260" width="100" height="100" as="geometry" />
        </mxCell>
        <mxCell id="jbGdhoGfE8PB2Ea7ptJv-13" value="" style="edgeStyle=orthogonalEdgeStyle;rounded=0;orthogonalLoop=1;jettySize=auto;html=1;" edge="1" parent="1" source="jbGdhoGfE8PB2Ea7ptJv-14" target="jbGdhoGfE8PB2Ea7ptJv-18">
          <mxGeometry relative="1" as="geometry" />
        </mxCell>
        <mxCell id="jbGdhoGfE8PB2Ea7ptJv-14" value="Xóa" style="rounded=1;whiteSpace=wrap;html=1;fontSize=12;glass=0;strokeWidth=1;shadow=0;" vertex="1" parent="1">
          <mxGeometry x="40" y="400" width="120" height="40" as="geometry" />
        </mxCell>
        <mxCell id="jbGdhoGfE8PB2Ea7ptJv-15" value="không xóa" style="rounded=1;whiteSpace=wrap;html=1;fontSize=12;glass=0;strokeWidth=1;shadow=0;" vertex="1" parent="1">
          <mxGeometry x="300" y="390" width="120" height="40" as="geometry" />
        </mxCell>
        <mxCell id="jbGdhoGfE8PB2Ea7ptJv-16" style="edgeStyle=orthogonalEdgeStyle;rounded=0;orthogonalLoop=1;jettySize=auto;html=1;entryX=0.75;entryY=0;entryDx=0;entryDy=0;exitX=1;exitY=0.5;exitDx=0;exitDy=0;exitPerimeter=0;" edge="1" parent="1" source="jbGdhoGfE8PB2Ea7ptJv-18" target="jbGdhoGfE8PB2Ea7ptJv-24">
          <mxGeometry relative="1" as="geometry" />
        </mxCell>
        <mxCell id="jbGdhoGfE8PB2Ea7ptJv-17" value="thất bại" style="edgeLabel;html=1;align=center;verticalAlign=middle;resizable=0;points=[];" vertex="1" connectable="0" parent="jbGdhoGfE8PB2Ea7ptJv-16">
          <mxGeometry x="-0.4739" y="4" relative="1" as="geometry">
            <mxPoint as="offset" />
          </mxGeometry>
        </mxCell>
        <mxCell id="jbGdhoGfE8PB2Ea7ptJv-18" value="" style="strokeWidth=2;html=1;shape=mxgraph.flowchart.decision;whiteSpace=wrap;" vertex="1" parent="1">
          <mxGeometry x="40" y="510" width="90" height="90" as="geometry" />
        </mxCell>
        <mxCell id="jbGdhoGfE8PB2Ea7ptJv-19" style="edgeStyle=orthogonalEdgeStyle;rounded=0;orthogonalLoop=1;jettySize=auto;html=1;entryX=0;entryY=0.75;entryDx=0;entryDy=0;" edge="1" parent="1" source="jbGdhoGfE8PB2Ea7ptJv-20" target="jbGdhoGfE8PB2Ea7ptJv-23">
          <mxGeometry relative="1" as="geometry" />
        </mxCell>
        <mxCell id="jbGdhoGfE8PB2Ea7ptJv-20" value="Thông báo thành công" style="rounded=1;whiteSpace=wrap;html=1;fontSize=12;glass=0;strokeWidth=1;shadow=0;" vertex="1" parent="1">
          <mxGeometry x="-70" y="610" width="120" height="40" as="geometry" />
        </mxCell>
        <mxCell id="jbGdhoGfE8PB2Ea7ptJv-21" style="edgeStyle=orthogonalEdgeStyle;rounded=0;orthogonalLoop=1;jettySize=auto;html=1;entryX=0.158;entryY=0.075;entryDx=0;entryDy=0;entryPerimeter=0;exitX=0;exitY=0.5;exitDx=0;exitDy=0;exitPerimeter=0;" edge="1" parent="1" source="jbGdhoGfE8PB2Ea7ptJv-18" target="jbGdhoGfE8PB2Ea7ptJv-20">
          <mxGeometry relative="1" as="geometry" />
        </mxCell>
        <mxCell id="jbGdhoGfE8PB2Ea7ptJv-22" value="thành công" style="edgeLabel;html=1;align=center;verticalAlign=middle;resizable=0;points=[];" vertex="1" connectable="0" parent="jbGdhoGfE8PB2Ea7ptJv-21">
          <mxGeometry x="-0.2744" relative="1" as="geometry">
            <mxPoint as="offset" />
          </mxGeometry>
        </mxCell>
        <mxCell id="jbGdhoGfE8PB2Ea7ptJv-23" value="lấy dữ liệu MenuFooter mới" style="rounded=1;whiteSpace=wrap;html=1;fontSize=12;glass=0;strokeWidth=1;shadow=0;" vertex="1" parent="1">
          <mxGeometry x="50" y="700" width="120" height="40" as="geometry" />
        </mxCell>
        <mxCell id="jbGdhoGfE8PB2Ea7ptJv-24" value="Thông báo lỗi" style="rounded=1;whiteSpace=wrap;html=1;fontSize=12;glass=0;strokeWidth=1;shadow=0;" vertex="1" parent="1">
          <mxGeometry x="130" y="610" width="120" height="40" as="geometry" />
        </mxCell>
        <mxCell id="jbGdhoGfE8PB2Ea7ptJv-25" style="edgeStyle=orthogonalEdgeStyle;rounded=0;orthogonalLoop=1;jettySize=auto;html=1;entryX=1;entryY=0.5;entryDx=0;entryDy=0;entryPerimeter=0;exitX=1;exitY=0.5;exitDx=0;exitDy=0;" edge="1" parent="1" source="jbGdhoGfE8PB2Ea7ptJv-15" target="jbGdhoGfE8PB2Ea7ptJv-5">
          <mxGeometry relative="1" as="geometry" />
        </mxCell>
        <mxCell id="jbGdhoGfE8PB2Ea7ptJv-26" style="edgeStyle=orthogonalEdgeStyle;rounded=0;orthogonalLoop=1;jettySize=auto;html=1;entryX=0;entryY=0.5;entryDx=0;entryDy=0;entryPerimeter=0;" edge="1" parent="1" source="jbGdhoGfE8PB2Ea7ptJv-24" target="jbGdhoGfE8PB2Ea7ptJv-5">
          <mxGeometry relative="1" as="geometry" />
        </mxCell>
        <mxCell id="jbGdhoGfE8PB2Ea7ptJv-27" style="edgeStyle=orthogonalEdgeStyle;rounded=0;orthogonalLoop=1;jettySize=auto;html=1;entryX=0.5;entryY=1;entryDx=0;entryDy=0;entryPerimeter=0;" edge="1" parent="1" source="jbGdhoGfE8PB2Ea7ptJv-23" target="jbGdhoGfE8PB2Ea7ptJv-5">
          <mxGeometry relative="1" as="geometry" />
        </mxCell>
      </root>
    </mxGraphModel>
  </diagram>
</mxfile>
